<svg width="64" height="64" viewBox="0 0 34 34" fill="none" xmlns="http://www.w3.org/2000/svg">
  <path d="M0 8.94737C0 4.00587 4.00587 0 8.94737 0H25.0526C29.9941 0 34 4.00587 34 8.94737V25.0526C34 29.9941 29.9941 34 25.0526 34H8.94737C4.00587 34 0 29.9941 0 25.0526V8.94737Z" fill="#465FFF"/>
  <path d="M8.9502 8.94786C8.9502 7.95956 9.75137 7.15839 10.7397 7.15839C11.728 7.15839 12.5291 7.95956 12.5291 8.94786V25.0531C12.5291 26.0414 11.728 26.8426 10.7397 26.8426C9.75137 26.8426 8.9502 26.0414 8.9502 25.0531V8.94786Z" fill="white"/>
  <path d="M15.6636 16.1042C15.6636 15.1159 16.4647 14.3147 17.453 14.3147C18.4413 14.3147 19.2425 15.1159 19.2425 16.1042V25.0515C19.2425 26.0398 18.4413 26.841 17.453 26.841C16.4647 26.841 15.6636 26.0398 15.6636 25.0515V16.1042Z" fill="white" fill-opacity="0.9"/>
  <path d="M22.3706 11.6301C22.3706 10.6418 23.1718 9.84058 24.1601 9.84058C25.1484 9.84058 25.9496 10.6418 25.9496 11.63V25.0511C25.9496 26.0394 25.1484 26.8406 24.1601 26.8406C23.1718 26.8406 22.3706 26.0394 22.3706 25.0511V11.6301Z" fill="white" fill-opacity="0.7"/>
</svg>
