<svg class="absolute bottom-0 left-0" width="279" height="63" viewBox="0 0 279 63" fill="none" xmlns="http://www.w3.org/2000/svg"><g opacity="0.05"><rect width="28.2498" height="28.2498" rx="5.02218" transform="matrix(1 1.74846e-07 1.74846e-07 -1 0 89.7725)" fill="#FCFCFD"></rect><rect width="28.2498" height="28.2498" rx="5.02218" transform="matrix(1 1.74846e-07 1.74846e-07 -1 30.7607 89.7725)" fill="#F9FAFB"></rect><g filter="url(#filter0_dd_8164_6081)"><rect width="28.2498" height="28.2498" rx="5.02218" transform="matrix(1 1.74846e-07 1.74846e-07 -1 61.5217 89.7725)" fill="white"></rect></g><rect opacity="0.5" width="28.2498" height="28.2498" rx="5.02218" transform="matrix(1 1.74846e-07 1.74846e-07 -1 30.7607 59.0117)" fill="#F9FAFB"></rect><rect width="28.2498" height="28.2498" rx="5.02218" transform="matrix(1 1.74846e-07 1.74846e-07 -1 61.5217 59.0117)" fill="#F9FAFB"></rect><rect width="28.2498" height="28.2498" rx="5.02218" transform="matrix(1 1.74846e-07 1.74846e-07 -1 0 28.25)" fill="#E4E7EC"></rect></g><defs><filter id="filter0_dd_8164_6081" x="57.7551" y="60.2669" width="35.783" height="35.7833" filterUnits="userSpaceOnUse" color-interpolation-filters="sRGB"><feFlood flood-opacity="0" result="BackgroundImageFix"></feFlood><feColorMatrix in="SourceAlpha" type="matrix" values="0 0 0 0 0 0 0 0 0 0 0 0 0 0 0 0 0 0 127 0" result="hardAlpha"></feColorMatrix><feMorphology radius="1.25555" operator="erode" in="SourceAlpha" result="effect1_dropShadow_8164_6081"></feMorphology><feOffset dy="1.25555"></feOffset><feGaussianBlur stdDeviation="1.25555"></feGaussianBlur><feColorMatrix type="matrix" values="0 0 0 0 0.0627451 0 0 0 0 0.0941176 0 0 0 0 0.156863 0 0 0 0.06 0"></feColorMatrix><feBlend mode="normal" in2="BackgroundImageFix" result="effect1_dropShadow_8164_6081"></feBlend><feColorMatrix in="SourceAlpha" type="matrix" values="0 0 0 0 0 0 0 0 0 0 0 0 0 0 0 0 0 0 127 0" result="hardAlpha"></feColorMatrix><feMorphology radius="1.25555" operator="erode" in="SourceAlpha" result="effect2_dropShadow_8164_6081"></feMorphology><feOffset dy="2.51109"></feOffset><feGaussianBlur stdDeviation="2.51109"></feGaussianBlur><feColorMatrix type="matrix" values="0 0 0 0 0.0627451 0 0 0 0 0.0941176 0 0 0 0 0.156863 0 0 0 0.1 0"></feColorMatrix><feBlend mode="normal" in2="effect1_dropShadow_8164_6081" result="effect2_dropShadow_8164_6081"></feBlend><feBlend mode="normal" in="SourceGraphic" in2="effect2_dropShadow_8164_6081" result="shape"></feBlend></filter></defs></svg>